<?xml version="1.0" encoding="UTF-8"?>
<svg version="1.1" xmlns="http://www.w3.org/2000/svg" width="1024" height="1024">
<path d="M0 0 C337.92 0 675.84 0 1024 0 C1024 337.92 1024 675.84 1024 1024 C686.08 1024 348.16 1024 0 1024 C0 686.08 0 348.16 0 0 Z " fill="#091728" transform="translate(0,0)"/>
<path d="M0 0 C-0.24853516 1.87451172 -0.24853516 1.87451172 -1 4 C-2.73974609 5.12158203 -2.73974609 5.12158203 -5.0234375 6.0078125 C-6.2933252 6.51985229 -6.2933252 6.51985229 -7.58886719 7.04223633 C-8.50829102 7.39954834 -9.42771484 7.75686035 -10.375 8.125 C-33.50360567 17.60946317 -53.56650429 30.09145712 -72 47 C-72.51369141 47.46841309 -73.02738281 47.93682617 -73.55664062 48.41943359 C-105.77726027 78.16870276 -128.84018863 124.04392627 -131.10714722 168.0814209 C-131.16325602 170.26956917 -131.19075797 172.45569873 -131.203125 174.64453125 C-131.20882507 175.45379562 -131.21452515 176.26306 -131.22039795 177.09684753 C-131.22979274 178.80535602 -131.23635979 180.51388218 -131.24023438 182.22241211 C-131.24983132 184.76776203 -131.28086164 187.31226449 -131.3125 189.85742188 C-131.41012815 204.88733078 -129.72759118 219.71912134 -125.5 234.1875 C-125.25137207 235.04005371 -125.00274414 235.89260742 -124.74658203 236.77099609 C-110.01344581 284.58239943 -74.9835642 323.40240298 -31.5703125 347.140625 C-6.91178264 360.10768637 20.36673116 368.90250613 48.37109375 369.2734375 C49.67876961 369.29216164 49.67876961 369.29216164 51.01286316 369.31126404 C70.63108206 369.53784461 88.92500131 369.0723233 108 364 C109.48783848 363.64527312 110.97609095 363.292276 112.46484375 362.94140625 C148.83366929 353.82784663 180.61730663 330.88905414 205 303 C205.99 303.33 206.98 303.66 208 304 C207.445048 309.00227567 205.78690909 313.01552562 203.5 317.4375 C202.96705322 318.48031128 202.96705322 318.48031128 202.42333984 319.54418945 C196.01353213 331.91475463 188.73077494 343.15309823 180 354 C179.35160156 354.85335938 178.70320313 355.70671875 178.03515625 356.5859375 C165.88969002 372.21871582 151.1174957 385.6025705 135 397 C133.85153217 397.84110442 132.70309337 398.68224849 131.5546875 399.5234375 C84.80428058 432.93768984 22.77212786 446.34852537 -33.80859375 436.96875 C-35.54031954 436.65264392 -37.27080686 436.32967916 -39 436 C-39.89605957 435.83371094 -40.79211914 435.66742187 -41.71533203 435.49609375 C-86.61184559 426.90954609 -125.60151739 404.53170411 -158.57080078 373.35009766 C-159.77860205 372.20914429 -160.99570563 371.07805034 -162.21484375 369.94921875 C-167.97649164 364.4467861 -172.78013752 358.18407823 -177.58544922 351.85449219 C-178.93864729 350.0804341 -180.31318846 348.3249576 -181.69140625 346.5703125 C-204.9105478 316.53446455 -218.12128563 280.24091775 -224 243 C-224.1757959 241.95545654 -224.3515918 240.91091309 -224.53271484 239.8347168 C-225.08864622 235.27253593 -225.18100972 230.80226778 -225.203125 226.2109375 C-225.20882507 225.27182526 -225.21452515 224.33271301 -225.22039795 223.36514282 C-225.22981629 221.37657788 -225.2363693 219.38799755 -225.24023438 217.39941406 C-225.24981387 214.43264335 -225.28081397 211.46660474 -225.3125 208.5 C-225.40751656 191.54480292 -223.81305155 174.898688 -219.3125 158.5 C-219.05758789 157.55406982 -218.80267578 156.60813965 -218.54003906 155.63354492 C-209.25647865 122.30645035 -192.33143809 92.74170532 -169.0234375 67.24609375 C-167.42588072 65.47274404 -165.91616508 63.68316018 -164.4375 61.8125 C-161.25549565 58.14095652 -157.70153414 55.13484976 -154 52 C-152.62714844 50.77796875 -152.62714844 50.77796875 -151.2265625 49.53125 C-142.41910562 41.75670507 -132.92959948 35.25747801 -123 29 C-122.40638672 28.62246582 -121.81277344 28.24493164 -121.20117188 27.85595703 C-98.68834693 13.70902542 -73.04786646 5.44882433 -47 1 C-45.74703125 0.773125 -44.4940625 0.54625 -43.203125 0.3125 C-9.72131148 -4.86065574 -9.72131148 -4.86065574 0 0 Z " fill="#F2BE47" transform="translate(511,187)"/>
<path d="M0 0 C16.38153693 13.94589094 26.09688057 31.61279907 29 53 C29.06656312 55.63589958 29.09567411 58.24148596 29.0625 60.875 C29.05798828 61.56335938 29.05347656 62.25171875 29.04882812 62.9609375 C29.03716336 64.64066335 29.01923271 66.32034375 29 68 C29.70382812 67.95359375 30.40765625 67.9071875 31.1328125 67.859375 C46.39974786 67.3013147 58.71732396 72.47016569 70.1875 82.25 C80.07302648 91.54673337 87.37374108 104.01065684 88.23828125 117.80078125 C88.67367383 135.3062963 85.07540209 150.74294831 72.6875 163.875 C61.65189862 174.16621006 47.62345871 179.09833124 32.61474609 179.14717102 C31.88052335 179.15084771 31.1463006 179.1545244 30.38982868 179.1583125 C27.93435779 179.16930807 25.47892928 179.17318619 23.0234375 179.17700195 C21.26056282 179.18326987 19.49768944 179.18991696 17.7348175 179.19691467 C11.94822097 179.21792371 6.16162427 179.22831619 0.375 179.23828125 C-1.62104303 179.24233041 -3.61708591 179.24644738 -5.61312866 179.25063133 C-14.99492481 179.26967845 -24.37671313 179.28390879 -33.75852489 179.2922433 C-44.56707419 179.30200513 -55.37541813 179.32829916 -66.18389511 179.36874419 C-74.55101057 179.39897256 -82.91806739 179.41371866 -91.28523636 179.41702431 C-96.27620821 179.4193677 -101.26696055 179.4282348 -106.25787354 179.45348549 C-110.95949055 179.47688818 -115.66074545 179.48095075 -120.36240578 179.47072411 C-122.079173 179.47023154 -123.79595879 179.4764687 -125.51267052 179.49028015 C-143.17278674 179.62430276 -157.47945348 175.80577922 -170.5859375 163.4296875 C-183.47106837 150.46115772 -189.79443419 135.29443148 -190.3125 117.0625 C-189.99111722 100.6541234 -183.37509842 86.09177841 -171.828125 74.5625 C-162.65514755 66.25107291 -150.66749671 60.81332503 -138.25 60.9375 C-136.49429688 60.95103516 -136.49429688 60.95103516 -134.703125 60.96484375 C-133.36507812 60.98224609 -133.36507812 60.98224609 -132 61 C-132.05220703 59.69289063 -132.05220703 59.69289063 -132.10546875 58.359375 C-132.57064692 37.89153554 -124.74907802 20.04681959 -110.75 5.25 C-80.14816913 -23.60768507 -33.26209549 -26.2257011 0 0 Z " fill="#F2BE47" transform="translate(614,295)"/>
<path d="M0 0 C4.29 0 8.58 0 13 0 C13 5.28 13 10.56 13 16 C16.3 16 19.6 16 23 16 C23 10.72 23 5.44 23 0 C27.62 0 32.24 0 37 0 C37 5.61 37 11.22 37 17 C39.145 17.4125 41.29 17.825 43.5 18.25 C52.86655019 20.28949077 59.60184878 22.73085753 65 31 C68.30015205 37.71293729 68.20639746 46.39182451 65.8125 53.4375 C63.88019611 57.23547661 61.87839191 59.88822496 59 63 C59.88751953 63.51046875 59.88751953 63.51046875 60.79296875 64.03125 C67.00315462 67.84043415 71.41788404 71.85812312 73.609375 78.98046875 C75.25678449 87.49757584 73.47047993 95.47977457 68.8125 102.75 C62.429593 110.85498162 52.73094652 113.10257143 43 115 C41.02 115 39.04 115 37 115 C37 120.94 37 126.88 37 133 C32.38 133 27.76 133 23 133 C23 127.39 23 121.78 23 116 C19.7 116 16.4 116 13 116 C13 121.61 13 127.22 13 133 C8.71 133 4.42 133 0 133 C0 127.39 0 121.78 0 116 C-8.25 116 -16.5 116 -25 116 C-25 110.72 -25 105.44 -25 100 C-22.875625 99.855625 -20.75125 99.71125 -18.5625 99.5625 C-14.45880084 99.63463644 -14.45880084 99.63463644 -11 98 C-10.90590521 95.97505769 -10.88256878 93.9468013 -10.88647461 91.91967773 C-10.88658791 89.96776772 -10.88658791 89.96776772 -10.88670349 87.97642517 C-10.89181091 86.54548098 -10.89702692 85.11453718 -10.90234375 83.68359375 C-10.90420797 82.2277074 -10.90563185 80.77182043 -10.90663147 79.31593323 C-10.91045635 75.47720621 -10.92028636 71.63851681 -10.93133545 67.79980469 C-10.94155022 63.88542184 -10.94612923 59.97103294 -10.95117188 56.05664062 C-10.96190866 48.37107657 -10.97898471 40.68554355 -11 33 C-12.39025391 32.90912109 -12.39025391 32.90912109 -13.80859375 32.81640625 C-15.00613281 32.73261719 -16.20367188 32.64882813 -17.4375 32.5625 C-18.63246094 32.48128906 -19.82742188 32.40007812 -21.05859375 32.31640625 C-24 32 -24 32 -25 31 C-25.07320163 28.4672235 -25.09227569 25.96896082 -25.0625 23.4375 C-25.041875 20.983125 -25.02125 18.52875 -25 16 C-16.75 16 -8.5 16 0 16 C0 10.72 0 5.44 0 0 Z " fill="#FEFDF8" transform="translate(542,321)"/>
<path d="M0 0 C46.34285714 0 46.34285714 0 61.1875 10.1875 C71.46237176 20.46237176 75.33865875 31.70781243 75.4375 46.0625 C75.27013206 59.45568206 72.65125328 71.0753102 63.4375 81.1875 C46.21475509 97.43720847 22.10658015 93 0 93 C0 62.31 0 31.62 0 0 Z " fill="#FCFCF9" transform="translate(537,687)"/>
<path d="M0 0 C6.47517388 4.1326195 10.96278269 10.20841809 13.2890625 17.4609375 C15.99000039 30.77270282 15.00521456 42.84176304 8.4765625 54.7734375 C2.81109227 61.73387236 -2.99338197 65.51954996 -11.96875 66.77734375 C-17.84885026 67.09491014 -22.68244102 65.48005486 -27.7109375 62.4609375 C-28.7009375 61.4709375 -29.6909375 60.4809375 -30.7109375 59.4609375 C-31.0409375 70.0209375 -31.3709375 80.5809375 -31.7109375 91.4609375 C-37.6509375 91.4609375 -43.5909375 91.4609375 -49.7109375 91.4609375 C-49.7109375 60.7709375 -49.7109375 30.0809375 -49.7109375 -1.5390625 C-44.1009375 -1.5390625 -38.4909375 -1.5390625 -32.7109375 -1.5390625 C-32.3809375 0.4409375 -32.0509375 2.4209375 -31.7109375 4.4609375 C-31.16824219 4.03941406 -30.62554687 3.61789062 -30.06640625 3.18359375 C-29.35097656 2.63574219 -28.63554687 2.08789062 -27.8984375 1.5234375 C-27.19074219 0.97816406 -26.48304688 0.43289063 -25.75390625 -0.12890625 C-18.67800727 -5.01303537 -7.43303526 -3.41386961 0 0 Z " fill="#FCFCF9" transform="translate(386.7109375,715.5390625)"/>
<path d="M0 0 C3.36026579 1.9862588 5.91478453 4.4041326 8.5 7.3125 C9.03109375 6.83039062 9.5621875 6.34828125 10.109375 5.8515625 C10.81578125 5.21992187 11.5221875 4.58828125 12.25 3.9375 C12.94609375 3.31101562 13.6421875 2.68453125 14.359375 2.0390625 C20.24862501 -2.71102601 26.16093574 -2.37306528 33.5 -1.6875 C39.39314088 -0.18327341 42.73390167 3.22435003 46.2734375 8.01953125 C49.83001626 14.66829473 49.77036044 21.12539772 49.6953125 28.49609375 C49.6924826 29.55159927 49.68965271 30.6071048 49.68673706 31.69459534 C49.67559415 35.04651504 49.65050024 38.39816184 49.625 41.75 C49.6149626 44.03059508 49.60583808 46.31119438 49.59765625 48.59179688 C49.57567407 54.16546881 49.54118473 59.73893822 49.5 65.3125 C43.56 65.3125 37.62 65.3125 31.5 65.3125 C31.48541748 64.00579346 31.47083496 62.69908691 31.45581055 61.3527832 C31.39777185 56.49768925 31.32053884 51.64305637 31.23754883 46.78833008 C31.20432578 44.68847139 31.1762857 42.58852397 31.15356445 40.48852539 C31.11997064 37.46722656 31.06765166 34.44673899 31.01171875 31.42578125 C31.00532883 30.48914139 30.9989389 29.55250153 30.99235535 28.58747864 C30.88294873 23.72056784 30.74112051 20.21417626 27.5 16.3125 C23.74543433 13.80945622 21.95254066 13.85969926 17.5 14.3125 C14.14765709 15.52758201 14.14765709 15.52758201 11.5 18.3125 C10.58862152 21.8566284 10.6624232 25.34091031 10.6953125 28.984375 C10.68160614 30.02192932 10.66789978 31.05948364 10.65377808 32.128479 C10.61640704 35.44025756 10.62019797 38.75054011 10.625 42.0625 C10.60687832 44.30861726 10.58607731 46.55471463 10.5625 48.80078125 C10.51058181 54.304939 10.49557423 59.80811077 10.5 65.3125 C4.56 65.3125 -1.38 65.3125 -7.5 65.3125 C-7.50410889 63.94520752 -7.50821777 62.57791504 -7.51245117 61.16918945 C-7.53424291 56.09035684 -7.58853386 51.01229889 -7.65258789 45.93383789 C-7.67576738 43.73697338 -7.69016347 41.53999775 -7.69555664 39.34301758 C-7.70484627 36.18240109 -7.74583877 33.02353224 -7.79296875 29.86328125 C-7.7890361 28.88289383 -7.78510345 27.90250641 -7.78105164 26.89241028 C-7.88150248 22.18476522 -7.95946255 20.01127018 -10.9152832 16.19018555 C-13.44541738 14.35215192 -14.44349281 13.66460449 -17.5 13.8125 C-18.4590625 13.82796875 -18.4590625 13.82796875 -19.4375 13.84375 C-22.5687371 14.5553948 -24.04498003 15.13194198 -26.5 17.3125 C-27.30231332 20.8893115 -27.2209189 24.45241112 -27.20703125 28.10546875 C-27.22215256 29.16663406 -27.23727386 30.22779938 -27.25285339 31.32112122 C-27.29588081 34.71429443 -27.30458322 38.10658065 -27.3125 41.5 C-27.33563249 43.79885196 -27.3609952 46.09768264 -27.38867188 48.39648438 C-27.45167337 54.03523518 -27.48389107 59.67342808 -27.5 65.3125 C-33.77 65.3125 -40.04 65.3125 -46.5 65.3125 C-46.5 43.5325 -46.5 21.7525 -46.5 -0.6875 C-40.89 -0.6875 -35.28 -0.6875 -29.5 -0.6875 C-29.17 1.2925 -28.84 3.2725 -28.5 5.3125 C-27.95730469 4.89097656 -27.41460938 4.46945312 -26.85546875 4.03515625 C-26.14003906 3.48730469 -25.42460938 2.93945312 -24.6875 2.375 C-23.97980469 1.82972656 -23.27210938 1.28445313 -22.54296875 0.72265625 C-16.51078592 -3.4410493 -6.47736137 -3.07148302 0 0 Z " fill="#F7F8F5" transform="translate(856.5,714.6875)"/>
<path d="M0 0 C7.01803039 5.38531788 11.58302097 13.85458429 12.83203125 22.59765625 C13.65265266 33.75495118 11.88569345 43.67967462 4.83203125 52.59765625 C-0.6935111 58.70260329 -9.25226745 63.08581521 -17.515625 63.80078125 C-28.05388686 63.98273685 -37.11389786 61.69511336 -45.16796875 54.59765625 C-53.74767548 44.48184483 -55.39028362 33.74860698 -54.46972656 20.87109375 C-53.42828796 13.02491557 -48.79678692 6.23749095 -43.03125 0.99609375 C-30.70940403 -8.25174872 -12.73221108 -8.23579059 0 0 Z " fill="#FBFBF8" transform="translate(512.16796875,718.40234375)"/>
<path d="M0 0 C2.97185254 1.99007982 5.10480824 3.51239021 6 7.0625 C5.16272284 9.65044758 4.28640033 11.88097251 3.125 14.3125 C2.68220703 15.28703125 2.68220703 15.28703125 2.23046875 16.28125 C1.50096566 17.88145032 0.75230175 19.47289065 0 21.0625 C-2.77268909 19.78005708 -4.4704148 18.64435351 -6.8125 16.5625 C-12.20156121 12.01799316 -18.46542515 11.59499963 -25.2890625 11.75390625 C-31.08998806 12.41424216 -35.23825934 14.96319422 -39.25 19.125 C-45.70572508 27.43277736 -46.99005344 36.81972486 -46 47.0625 C-44.85799029 54.82061556 -42.88771104 61.60848196 -37 67.0625 C-30.33190004 71.39423918 -23.8880587 72.85565191 -16 72.0625 C-9.77480512 70.47745698 -5.48647926 68.68493318 -1 64.0625 C-0.34 64.0625 0.32 64.0625 1 64.0625 C2.98 68.6825 4.96 73.3025 7 78.0625 C1.09427049 83.85680065 -4.06866349 86.77177237 -12 89.0625 C-12.63421875 89.25457031 -13.2684375 89.44664062 -13.921875 89.64453125 C-25.3668071 91.94642549 -36.55409986 89.52948737 -46.4375 83.5625 C-47.63461156 82.74303394 -48.82341962 81.91118093 -50 81.0625 C-50.86625 80.485 -51.7325 79.9075 -52.625 79.3125 C-61.9265536 70.50050185 -66.53576267 58.01841189 -67.1875 45.4453125 C-67.41467516 31.3320558 -65.28917136 18.3035553 -56.0390625 7.1640625 C-41.44105442 -7.88139411 -17.86396557 -11.14734028 0 0 Z " fill="#FBFBF8" transform="translate(192,691.9375)"/>
<path d="M0 0 C7.6308347 4.86766929 11.03529159 10.72306227 13.85546875 19.18359375 C13.85546875 25.12359375 13.85546875 31.06359375 13.85546875 37.18359375 C-0.33453125 37.18359375 -14.52453125 37.18359375 -29.14453125 37.18359375 C-25.76312176 45.8922935 -25.76312176 45.8922935 -19.14453125 50.18359375 C-9.84495201 52.96970251 -0.54313803 50.60391311 7.85546875 46.18359375 C8.38941054 47.59537205 8.90711979 49.01329619 9.41796875 50.43359375 C9.70800781 51.2225 9.99804688 52.01140625 10.296875 52.82421875 C10.91345346 55.42850819 10.84935906 56.71727335 9.85546875 59.18359375 C2.74710104 65.35664992 -6.99682631 66.80425076 -16.16015625 66.53125 C-26.44923053 65.33265365 -34.9274405 60.37152761 -41.45703125 52.43359375 C-47.76208421 43.29384395 -48.10508465 32.92432726 -47.14453125 22.18359375 C-45.16188134 13.21446322 -39.69811755 6.30346488 -32.08203125 1.30859375 C-22.70546826 -4.36095597 -9.73959291 -5.28094249 0 0 Z " fill="#F9F9F6" transform="translate(716.14453125,715.81640625)"/>
<path d="M0 0 C5.20208222 3.84975896 7.29633679 8.70777381 9.05078125 14.81640625 C9.53185695 18.58715822 9.52167101 22.27793062 9.44140625 26.07421875 C9.43574646 27.10328339 9.43008667 28.13234802 9.42425537 29.19259644 C9.40206828 32.44269599 9.3519054 35.69164636 9.30078125 38.94140625 C9.28069341 41.1601402 9.26244667 43.37889163 9.24609375 45.59765625 C9.20226189 51.0042908 9.13552994 56.41026639 9.05078125 61.81640625 C6.96805231 62.15349533 4.88457088 62.48593741 2.80078125 62.81640625 C1.640625 63.00203125 0.48046875 63.18765625 -0.71484375 63.37890625 C-3.94921875 63.81640625 -3.94921875 63.81640625 -7.94921875 63.81640625 C-7.94921875 61.17640625 -7.94921875 58.53640625 -7.94921875 55.81640625 C-8.60921875 55.81640625 -9.26921875 55.81640625 -9.94921875 55.81640625 C-10.22765625 56.68265625 -10.22765625 56.68265625 -10.51171875 57.56640625 C-12.87991559 61.27314913 -16.75288524 63.15837776 -20.91796875 64.40625 C-28.03606095 65.84355708 -33.34613952 64.8067048 -39.7109375 61.3125 C-43.31313913 58.90474568 -46.17930424 56.20666373 -47.546875 51.9609375 C-48.68021032 45.92015021 -49.0455891 39.88916299 -45.88671875 34.44140625 C-39.31501027 25.51483556 -30.59334822 23.88480898 -20.0625 22.19140625 C-16.69461237 21.70103636 -13.32596001 21.2409965 -9.94921875 20.81640625 C-10.2221324 15.97918228 -10.2221324 15.97918228 -12.55859375 11.90625 C-18.24555945 9.3136627 -26.70728781 9.75801115 -32.60546875 11.68359375 C-34.93954339 12.83591853 -34.93954339 12.83591853 -37.94921875 14.81640625 C-38.93921875 15.14640625 -39.92921875 15.47640625 -40.94921875 15.81640625 C-41.27921875 10.86640625 -41.60921875 5.91640625 -41.94921875 0.81640625 C-28.68504278 -4.59398132 -13.06541289 -7.93350722 0 0 Z " fill="#FAFAF8" transform="translate(787.94921875,717.18359375)"/>
<path d="M0 0 C6.27 0 12.54 0 19 0 C20.95783391 5.44410735 22.91524372 10.88836337 24.87158203 16.33300781 C25.53669872 18.18368286 26.20206044 20.03426986 26.86767578 21.88476562 C27.82649741 24.55054774 28.78442617 27.21664928 29.7421875 29.8828125 C30.03809784 30.70492218 30.33400818 31.52703186 30.6388855 32.37405396 C32.14405163 36.56684283 33.61258585 40.76630275 35 45 C35.27972656 44.01644531 35.55945313 43.03289063 35.84765625 42.01953125 C38.5363219 32.67370661 41.46198045 23.43090158 44.58813477 14.22192383 C45.01437134 12.96351685 45.01437134 12.96351685 45.44921875 11.6796875 C45.70018311 10.94476074 45.95114746 10.20983398 46.2097168 9.45263672 C47.21728144 6.32566902 48.09746213 3.15888254 49 0 C55.27 0 61.54 0 68 0 C64.12205657 13.40303029 59.78497641 26.39421516 54.6875 39.375 C54.02191616 41.08264652 53.35663622 42.79041153 52.69165039 44.49829102 C51.08914689 48.60655665 49.47571756 52.71043114 47.85913086 56.81317139 C47.07727186 58.80331247 46.30140363 60.79560981 45.52929688 62.78955078 C44.34481299 65.84410782 43.14517679 68.89205419 41.9375 71.9375 C41.61676514 72.76878418 41.29603027 73.60006836 40.96557617 74.45654297 C37.78193427 82.33156247 33.52172403 88.82126443 26 93 C22.23699626 94.25433458 18.72789091 94.10695422 14.8125 94.0625 C14.06291016 94.05798828 13.31332031 94.05347656 12.54101562 94.04882812 C10.69397617 94.03706354 8.84697787 94.01912865 7 94 C7 89.38 7 84.76 7 80 C9.3203125 79.9071875 9.3203125 79.9071875 11.6875 79.8125 C15.33167182 79.42646485 16.83872832 79.10980199 19.9375 77 C23.07032599 72.4431622 25.55615793 68.03583623 24.51806641 62.36932373 C23.51039435 59.41037348 22.34591809 56.57503408 21.09375 53.7109375 C20.65744263 52.64944489 20.22113525 51.58795227 19.77160645 50.49429321 C18.37426796 47.10942115 16.93883497 43.74241424 15.5 40.375 C14.10113298 37.03347696 12.71039514 33.68866951 11.32128906 30.34307861 C10.42668395 28.18871931 9.52894628 26.03565788 8.62792969 23.88397217 C5.352858 16.01640458 2.53599011 8.13451064 0 0 Z " fill="#FBFBF8" transform="translate(260,714)"/>
<path d="M0 0 C0 6.6 0 13.2 0 20 C5.28 20 10.56 20 16 20 C16 24.29 16 28.58 16 33 C10.72 33 5.44 33 0 33 C0.05106755 37.91269851 0.11401017 42.82223536 0.20751953 47.73388672 C0.23571718 49.40403011 0.25693779 51.07430665 0.27099609 52.74462891 C0.29244337 55.14815372 0.33909845 57.55007983 0.390625 59.953125 C0.39185364 60.69806213 0.39308228 61.44299927 0.39434814 62.21051025 C0.49233459 65.6910808 0.74536193 67.66128332 2.86328125 70.47851562 C6.86337819 73.32684791 11.25803348 72.22580793 16 72 C16 76.62 16 81.24 16 86 C12.53961453 87.73019274 8.68901208 87.31162518 4.875 87.375 C4.04484375 87.41238281 3.2146875 87.44976563 2.359375 87.48828125 C-3.95477603 87.57735235 -8.14500225 86.08206997 -13 82 C-16.64766998 77.41703003 -18.13230842 73.75099469 -18.11352539 67.96582031 C-18.11344986 67.18531311 -18.11337433 66.40480591 -18.11329651 65.60064697 C-18.10813522 64.76821472 -18.10297394 63.93578247 -18.09765625 63.078125 C-18.0962413 62.21813904 -18.09482635 61.35815308 -18.09336853 60.47210693 C-18.08778097 57.73136891 -18.07523075 54.99071324 -18.0625 52.25 C-18.05748339 50.3893241 -18.05292077 48.52864691 -18.04882812 46.66796875 C-18.03781561 42.11194754 -18.02055951 37.55598772 -18 33 C-21.63 33 -25.26 33 -29 33 C-29 28.71 -29 24.42 -29 20 C-25.37 20 -21.74 20 -18 20 C-18 14.72 -18 9.44 -18 4 C-5.625 0 -5.625 0 0 0 Z " fill="#FCFCF9" transform="translate(435,694)"/>
<path d="M0 0 C20.42559524 0 20.42559524 0 29.2421875 7.12109375 C35.99275568 14.33670108 37.330466 23.01869403 37.203125 32.484375 C36.67807953 41.57170051 34.80687746 48.55000672 28.3203125 55.15625 C19.93993453 61.81540555 10.40575337 62 0 62 C0 41.54 0 21.08 0 0 Z " fill="#091726" transform="translate(556,703)"/>
<path d="M0 0 C5.61 0 11.22 0 17 0 C17 2.97 17 5.94 17 9 C17.66 9 18.32 9 19 9 C19.20625 8.4225 19.4125 7.845 19.625 7.25 C22.01964374 3.33149206 25.72751322 1.42416226 30 0 C31.72795352 -0.06802967 33.45835365 -0.08495645 35.1875 -0.0625 C37.5696875 -0.0315625 37.5696875 -0.0315625 40 0 C40 5.61 40 11.22 40 17 C36.51692708 17.13020833 33.03385417 17.26041667 29.55078125 17.390625 C25.54912411 18.07737804 23.85933105 19.17780312 21 22 C19.86980573 24.26038854 19.84731043 25.57118826 19.79467773 28.08251953 C19.77473251 28.92324005 19.75478729 29.76396057 19.73423767 30.63015747 C19.70916893 31.99272171 19.70916893 31.99272171 19.68359375 33.3828125 C19.66281265 34.31221649 19.64203156 35.24162048 19.62062073 36.19918823 C19.55512354 39.1743821 19.49623948 42.14966577 19.4375 45.125 C19.39431494 47.13933228 19.35070066 49.15365541 19.30664062 51.16796875 C19.19863249 56.11188838 19.09956038 61.05587407 19 66 C12.73 66 6.46 66 0 66 C0 44.22 0 22.44 0 0 Z " fill="#F9F9F6" transform="translate(212,714)"/>
<path d="M0 0 C5.28 0 10.56 0 16 0 C16.66 2.64 17.32 5.28 18 8 C18.721875 7.236875 19.44375 6.47375 20.1875 5.6875 C24.81704514 1.26371242 27.37960496 -0.17102652 33.8125 -0.1875 C35.524375 -0.125625 37.23625 -0.06375 39 0 C39 5.61 39 11.22 39 17 C35.51692708 17.13020833 32.03385417 17.26041667 28.55078125 17.390625 C24.53342905 18.08007158 22.8336485 19.1190364 20 22 C19.10557535 24.68327394 18.85418313 26.34149739 18.79467773 29.10424805 C18.77473251 29.92487228 18.75478729 30.74549652 18.73423767 31.59098816 C18.70916893 32.9129998 18.70916893 32.9129998 18.68359375 34.26171875 C18.66281265 35.16751175 18.64203156 36.07330475 18.62062073 37.00654602 C18.55523442 39.90012016 18.49629096 42.79378507 18.4375 45.6875 C18.3943044 47.64909793 18.35068977 49.61068668 18.30664062 51.57226562 C18.19877557 56.38141874 18.09962093 61.19064073 18 66 C12.06 66 6.12 66 0 66 C0 44.22 0 22.44 0 0 Z " fill="#FCFCF9" transform="translate(624,714)"/>
<path d="M0 0 C4.38491294 1.46457857 7.05878845 3.63411751 9.375 7.625 C9.91125 8.73875 10.4475 9.8525 11 11 C11.33 11.66 11.66 12.32 12 13 C12.63282887 20.90517371 13.09156309 28.50048055 8 35 C3.3588637 39.30962656 0.42569702 40.30981115 -5.75390625 40.2109375 C-10.35991854 39.77837287 -12.83556853 37.32841321 -15.75 34 C-19.15910063 29.45453249 -19.21025861 25.66684392 -19.25 20.1875 C-19.270625 19.48818359 -19.29125 18.78886719 -19.3125 18.06835938 C-19.3539331 12.53186113 -18.28781124 8.45081052 -14.46484375 4.35546875 C-9.50345193 0.56146324 -6.30190259 -0.79770919 0 0 Z " fill="#0A1626" transform="translate(495,727)"/>
<path d="M0 0 C3.9998593 -0.08783475 7.99946704 -0.14067102 12 -0.1875 C13.12535156 -0.21263672 14.25070312 -0.23777344 15.41015625 -0.26367188 C23.10236839 -0.33114742 29.21964501 0.07022488 35.5 4.9375 C37.90494642 9.84759894 37.83866811 14.64885217 37 20 C33.88801137 24.76523259 29.39696667 26.62603899 24 28 C20.01077062 28.36637206 16.06491373 28.33050109 12.0625 28.25 C11.00998047 28.24484375 9.95746094 28.2396875 8.87304688 28.234375 C1.15464979 28.15464979 1.15464979 28.15464979 0 27 C-0.08758003 25.00035018 -0.10696576 22.9976389 -0.09765625 20.99609375 C-0.09443359 19.78115234 -0.09121094 18.56621094 -0.08789062 17.31445312 C-0.07951172 16.03505859 -0.07113281 14.75566406 -0.0625 13.4375 C-0.05798828 12.15423828 -0.05347656 10.87097656 -0.04882812 9.54882812 C-0.03699545 6.36583978 -0.02051068 3.18294238 0 0 Z " fill="#F2BC44" transform="translate(554,393)"/>
<path d="M0 0 C4.77286133 2.21460766 7.056702 6.28056199 9 11 C9.2844321 13.7662416 9.42156865 16.2472756 9.375 19 C9.38660156 19.68578125 9.39820313 20.3715625 9.41015625 21.078125 C9.37905985 26.50963013 8.19291003 30.59579395 4.5 34.64453125 C-0.44851494 38.49767179 -3.72875513 39.51403646 -10 39 C-13.13391441 37.77537981 -16.58899164 36.41100836 -19 34 C-19.36665703 29.42514949 -19.37176924 24.83755403 -19.4375 20.25 C-19.48326172 18.9609375 -19.52902344 17.671875 -19.57617188 16.34375 C-19.68710684 7.04450592 -19.68710684 7.04450592 -17.70361328 4.02929688 C-12.3203672 -0.52084727 -6.77125021 -0.84162432 0 0 Z " fill="#0A1727" transform="translate(374,728)"/>
<path d="M0 0 C3.67125 -0.061875 7.3425 -0.12375 11.125 -0.1875 C12.84420654 -0.22846802 12.84420654 -0.22846802 14.59814453 -0.27026367 C20.10623469 -0.31517445 24.34515304 -0.3089567 29 3 C32.13806732 6.09152819 32.45627989 8.60374403 32.5 12.9375 C32.38480716 17.04938351 32.24527327 18.62837383 29.9375 22.125 C23.40407795 26.29526939 17.08294209 26.264668 9.5625 26.125 C6.406875 26.08375 3.25125 26.0425 0 26 C0 17.42 0 8.84 0 0 Z " fill="#F1BC43" transform="translate(554,353)"/>
<path d="M0 0 C0.91382452 11.55818797 0.91382452 11.55818797 -1.23046875 14.94140625 C-5.49241626 18.46672086 -9.62692818 19.32316181 -15.05859375 19.203125 C-17 19 -17 19 -19.5 18 C-21.43864181 15.41514425 -21.61925241 13.18959692 -21.44921875 10 C-20.66950096 6.52856079 -18.78784007 5.06057744 -16 3 C-11.00106347 0.77825043 -5.46307377 0 0 0 Z " fill="#091523" transform="translate(779,749)"/>
<path d="M0 0 C2.25 1.6875 2.25 1.6875 5.25 4.6875 C5.58 7.6575 5.91 10.6275 6.25 13.6875 C-2.33 13.6875 -10.91 13.6875 -19.75 13.6875 C-18.68447307 6.22881151 -18.55731527 5.49481527 -13.75 0.6875 C-9.56692948 -2.38008505 -4.57320068 -2.18266396 0 0 Z " fill="#0C1A2A" transform="translate(706.75,727.3125)"/>
<path d="M0 0 C3.63 0 7.26 0 11 0 C11 11.88 11 23.76 11 36 C9.515 36.495 9.515 36.495 8 37 C8 25.78 8 14.56 8 3 C5.36 3 2.72 3 0 3 C0 2.01 0 1.02 0 0 Z " fill="#111F2F" transform="translate(406,727)"/>
<path d="M0 0 C3.83968859 1.4564336 5.31006462 3.28214217 7 7 C7 8.98 7 10.96 7 13 C-1.58 13 -10.16 13 -19 13 C-17.875 5.125 -17.875 5.125 -13 1 C-13.28875 1.53625 -13.5775 2.0725 -13.875 2.625 C-15.15055883 5.31784643 -16.05774355 8.17323064 -17 11 C-9.74 11 -2.48 11 5 11 C3.37157879 4.69960242 3.37157879 4.69960242 0 0 Z " fill="#080C15" transform="translate(706,728)"/>
<path d="M0 0 C1.30875644 3.63389324 0.67073219 5.80072965 -0.58203125 9.39453125 C-0.93716797 10.43287109 -1.29230469 11.47121094 -1.65820312 12.54101562 C-2.03912109 13.62060547 -2.42003906 14.70019531 -2.8125 15.8125 C-3.54943778 17.94357488 -4.28514685 20.07507511 -5.01953125 22.20703125 C-5.36580566 23.20686035 -5.71208008 24.20668945 -6.06884766 25.23681641 C-7.15761669 28.46772568 -8.11263819 31.70877973 -9 35 C-10.69433918 31.9530371 -11.49467112 29.17178534 -12.125 25.75 C-12.29257812 24.85796875 -12.46015625 23.9659375 -12.6328125 23.046875 C-12.81457031 22.03367187 -12.81457031 22.03367187 -13 21 C-12.34 21.66 -11.68 22.32 -11 23 C-8.33047514 22.00499528 -7.217655 21.42765429 -5.90332031 18.84521484 C-5.49484863 17.54124756 -5.49484863 17.54124756 -5.078125 16.2109375 C-4.77519531 15.26992188 -4.47226562 14.32890625 -4.16015625 13.359375 C-3.85980469 12.37453125 -3.55945313 11.3896875 -3.25 10.375 C-2.93417969 9.38242187 -2.61835938 8.38984375 -2.29296875 7.3671875 C-1.5149972 4.91539837 -0.75138061 2.46004292 0 0 Z " fill="#05080E" transform="translate(304,726)"/>
<path d="M0 0 C0.66 0.33 1.32 0.66 2 1 C-0.34877419 3.50535913 -2.0911787 4.90564909 -5.55859375 5.265625 C-8.04060232 5.25154268 -10.52147399 5.13218805 -13 5 C-13 9.62 -13 14.24 -13 19 C-13.99 18.67 -14.98 18.34 -16 18 C-16.05472088 16.60461746 -16.09311538 15.20859103 -16.125 13.8125 C-16.14820313 13.03519531 -16.17140625 12.25789062 -16.1953125 11.45703125 C-15.95931473 8.48817931 -15.54331715 6.56631594 -14 4 C-11.25 3.14453125 -11.25 3.14453125 -8 2.8125 C-3.4868136 2.52278839 -3.4868136 2.52278839 0 0 Z " fill="#181E28" transform="translate(280,789)"/>
<path d="M0 0 C0.33 0.99 0.66 1.98 1 3 C0.01 3.33 -0.98 3.66 -2 4 C-1.97725987 8.2720236 -1.90003274 12.54135129 -1.8125 16.8125 C-1.80669922 18.02744141 -1.80089844 19.24238281 -1.79492188 20.49414062 C-1.76591797 21.65751953 -1.73691406 22.82089844 -1.70703125 24.01953125 C-1.6913208 25.09307861 -1.67561035 26.16662598 -1.65942383 27.27270508 C-1.25278048 30.2345506 -1.25278048 30.2345506 1.54418945 31.8737793 C2.35460693 32.24543213 3.16502441 32.61708496 4 33 C3.67 33.66 3.34 34.32 3 35 C0.06864812 33.8915705 -1.1182462 33.42149717 -3 31 C-3.87656879 26.31157772 -3.69803872 21.69086674 -3.5625 16.9375 C-3.56056641 15.64521484 -3.55863281 14.35292969 -3.55664062 13.02148438 C-3.42285185 3.52248122 -3.42285185 3.52248122 -1.46850586 1.10766602 C-0.98389893 0.74213623 -0.49929199 0.37660645 0 0 Z " fill="#010307" transform="translate(358,731)"/>
<path d="M0 0 C2.7885289 -0.22107787 5.34653181 -0.28107535 8.125 -0.1875 C8.87910156 -0.17396484 9.63320313 -0.16042969 10.41015625 -0.14648438 C12.27374127 -0.11109985 14.13695978 -0.05729167 16 0 C13.03875445 2.96124555 10.1981502 2.95957658 6.10546875 3.09765625 C5.14253906 3.08605469 4.17960938 3.07445312 3.1875 3.0625 C1.72376953 3.04896484 1.72376953 3.04896484 0.23046875 3.03515625 C-0.87361328 3.01775391 -0.87361328 3.01775391 -2 3 C-1.34 2.01 -0.68 1.02 0 0 Z " fill="#1A222C" transform="translate(558,762)"/>
<path d="M0 0 C0 4.62 0 9.24 0 14 C-0.66 14 -1.32 14 -2 14 C-2 9.71 -2 5.42 -2 1 C-3.65 1 -5.3 1 -7 1 C-3.375 -1.125 -3.375 -1.125 0 0 Z " fill="#020814" transform="translate(453,765)"/>
<path d="M0 0 C4.62 0 9.24 0 14 0 C10.12766576 2.58155616 8.46463981 3.12134154 3.875 3.0625 C2.96492188 3.05347656 2.05484375 3.04445313 1.1171875 3.03515625 C0.41851562 3.02355469 -0.28015625 3.01195312 -1 3 C-0.67 2.01 -0.34 1.02 0 0 Z " fill="#192330" transform="translate(270,808)"/>
<path d="M0 0 C0.99 0.33 1.98 0.66 3 1 C2.48964169 5.3890815 1.47785723 8.33708062 -1 12 C-1.33 11.34 -1.66 10.68 -2 10 C-1.3507041 8.65812182 -0.68268138 7.32520503 0 6 C0 5.01 0 4.02 0 3 C-0.99 3 -1.98 3 -3 3 C-2.01 2.01 -1.02 1.02 0 0 Z " fill="#F5D74D" transform="translate(716,490)"/>
<path d="M0 0 C0.99 0 1.98 0 3 0 C2.67 6.27 2.34 12.54 2 19 C1.67 19 1.34 19 1 19 C0.67 12.73 0.34 6.46 0 0 Z " fill="#101F2E" transform="translate(589,722)"/>
<path d="M0 0 C0.33 0.66 0.66 1.32 1 2 C-1.41556126 5.19199167 -3.68003538 7.74716687 -7 10 C-7.66 9.67 -8.32 9.34 -9 9 C-6.03 6.03 -3.06 3.06 0 0 Z " fill="#F9D54C" transform="translate(348,248)"/>
<path d="M0 0 C0.99 0.33 1.98 0.66 3 1 C2.34 3.64 1.68 6.28 1 9 C-0.61949011 6.42786866 -1.04408751 5.32330841 -0.625 2.25 C-0.41875 1.5075 -0.2125 0.765 0 0 Z " fill="#191F26" transform="translate(294,752)"/>
<path d="M0 0 C0.99 0.33 1.98 0.66 3 1 C4.66621616 1.03874921 6.33394172 1.0450286 8 1 C7.67 1.99 7.34 2.98 7 4 C4.03 3.505 4.03 3.505 1 3 C0.67 2.01 0.34 1.02 0 0 Z " fill="#070F1B" transform="translate(437,763)"/>
<path d="M0 0 C4.67692308 1.47692308 4.67692308 1.47692308 6.3125 4.125 C6.539375 4.74375 6.76625 5.3625 7 6 C6.01 6 5.02 6 4 6 C0 1.54285714 0 1.54285714 0 0 Z " fill="#161F2A" transform="translate(150,753)"/>
<path d="M0 0 C0.66 0.66 1.32 1.32 2 2 C2.99 1.34 3.98 0.68 5 0 C5.33 0.99 5.66 1.98 6 3 C4.625 4.5 4.625 4.5 3 6 C2.34 6 1.68 6 1 6 C0.67 4.02 0.34 2.04 0 0 Z " fill="#060F1B" transform="translate(291,747)"/>
</svg>
